#!OML:ASF H:\Terrain\Patient Classification 1\Walking\liu\liu.ASF
:FULLY-SPECIFIED
:DEGREES
32
root 8.83614 15.6266 -25.8016 7.27813 -5.95059 2.96698
lowerback -2.69654 3.0659 -7.10909
upperback 0.146853 4.30371 0.774133
thorax 1.08133 2.10818 4.91316
lowerneck -20.935 -5.46925 -12.7675
upperneck 16.4976 -6.64892 14.0358
head 9.60031 -2.41983 6.09793
rclavicle -5.66536e-015 -2.38542e-015
rhumerus -19.5235 21.1792 -83.2667
rradius 40.0403
rwrist -18.2689
rhand -35.3185 -22.2993
rfingers 7.12502
rthumb -8.45217 -52.1102
lclavicle -5.66536e-015 -2.38542e-015
lhumerus -52.1769 12.6894 68.6626
lradius 13.2589
lwrist -22.5742
lhand -13.1772 -28.578
lfingers 7.12502
lthumb 12.9224 1.0019
rfemur 3.76284 -2.5053 14.4943
rtibia 54.0333
rfoot 10.7791 -10.5011
rtoes -14.2625
lfemur -41.8603 6.64279 -26.8679
ltibia 41.3181
lfoot -7.10679 1.66152
ltoes -7.6108
33
root 8.85839 15.6777 -25.573 7.26093 -5.85983 3.5526
lowerback -2.65519 3.01506 -7.44064
upperback 0.0160735 4.24057 0.555459
thorax 0.924153 2.08457 4.86248
lowerneck -20.1706 -5.4667 -13.0005
upperneck 16.1402 -6.66771 14.2149
head 9.35773 -2.45537 6.19007
rclavicle 8.0806e-014 -2.10712e-014
rhumerus -20.4577 20.6849 -83.7741
rradius 39.6208
rwrist -18.4029
rhand -34.9183 -21.9542
rfingers 7.12502
rthumb -8.06587 -51.7802
lclavicle 8.0806e-014 -2.10712e-014
lhumerus -51.2889 11.9801 69.7208
lradius 13.4733
lwrist -21.1191
lhand -13.6594 -28.838
lfingers 7.12502
lthumb 12.4575 0.770772
rfemur 1.59328 -3.22445 13.8437
rtibia 57.3257
rfoot 9.09304 -11.2896
rtoes -11.3005
lfemur -40.6496 6.41994 -27.5378
ltibia 40.862
lfoot -7.81296 1.6628
ltoes -4.72582
34
root 8.88093 15.735 -25.3478 7.29503 -5.68313 3.5666
lowerback -2.70905 2.86813 -7.27395
upperback -0.0857792 4.03982 0.602049
thorax 0.884416 1.98952 4.81479
lowerneck -19.1525 -5.33776 -13.2954
upperneck 15.5094 -6.47461 14.2902
head 8.94233 -2.41729 6.27827
rclavicle -3.72721e-015 -5.1684e-015
rhumerus -21.0109 20.7377 -84.2453
rradius 38.9198
rwrist -18.9441
rhand -35.4326 -21.3815
rfingers 7.12502
rthumb -8.56223 -51.1879
lclavicle -3.72721e-015 -5.1684e-015
lhumerus -50.4505 11.4147 70.9066
lradius 13.8466
lwrist -19.5271
lhand -14.0733 -28.4938
lfingers 7.12502
lthumb 12.0584 1.13881
rfemur -0.517263 -3.72993 14.0564
rtibia 60.0999
rfoot 7.78831 -11.8562
rtoes -9.76326
lfemur -39.5122 6.32515 -27.6173
ltibia 40.4693
lfoot -8.45205 1.56785
ltoes -4.24714
35
root 8.90037 15.8004 -25.1217 7.32571 -5.64159 3.21777
lowerback -2.70167 2.63572 -6.85356
upperback -0.139498 3.71309 0.769973
thorax 0.884289 1.82956 4.74697
lowerneck -19.1312 -5.06434 -13.0054
upperneck 15.6917 -6.12049 13.9306
head 8.92106 -2.26887 6.15431
rclavicle 5.91384e-015 4.37326e-015
rhumerus -21.3035 21.123 -84.8564
rradius 38.2984
rwrist -19.3122
rhand -36.0645 -22.8338
rfingers 7.12502
rthumb -9.17207 -52.6144
lclavicle 5.91384e-015 4.37326e-015
lhumerus -49.7894 11.6643 71.5705
lradius 14.2374
lwrist -18.4879
lhand -14.4862 -28.2686
lfingers 7.12502
lthumb 11.6603 1.38691
rfemur -2.51751 -3.9673 14.7552
rtibia 62.4258
rfoot 6.55356 -12.3889
rtoes -9.97727
lfemur -38.3464 6.42275 -27.3199
ltibia 40.126
lfoot -9.23495 1.54226
ltoes -5.28344
36
root 8.91757 15.8671 -24.8977 7.48369 -5.60213 2.88932
lowerback -2.72806 2.50737 -6.38174
upperback -0.316177 3.52276 0.929618
thorax 0.759507 1.74534 4.64076
lowerneck -19.029 -4.89556 -13.0608
upperneck 16.0933 -5.90224 13.846
head 9.00362 -2.18089 6.17757
rclavicle -4.28381e-014 -1.47101e-014
rhumerus -22.5184 21.2034 -85.3156
rradius 38.3869
rwrist -19.3118
rhand -36.2036 -26.4195
rfingers 7.12502
rthumb -9.30623 -56.1941
lclavicle -4.28381e-014 -1.47101e-014
lhumerus -49.123 11.897 72.1954
lradius 14.3712
lwrist -17.9264
lhand -14.9376 -28.6727
lfingers 7.12502
lthumb 11.225 1.00702
rfemur -4.65768 -3.92792 15.4573
rtibia 64.4248
rfoot 4.92104 -13.1605
rtoes -9.73546
lfemur -37.3298 6.31908 -26.9899
ltibia 39.7996
lfoot -9.95511 1.74333
ltoes -4.63525
37
root 8.93617 15.9199 -24.6799 7.6203 -5.46546 2.61329
lowerback -2.79571 2.45793 -5.87258
upperback -0.306532 3.44558 0.995637
thorax 0.843114 1.70515 4.42628
lowerneck -19.3912 -4.88759 -13.0675
upperneck 16.4627 -5.87386 13.8126
head 9.18948 -2.15765 6.18318
rclavicle 3.52843e-015 -5.96354e-015
rhumerus -23.6687 21.0533 -85.6034
rradius 38.571
rwrist -19.3378
rhand -36.2686 -27.7038
rfingers 7.12502
rthumb -9.36903 -57.4756
lclavicle 3.52843e-015 -5.96354e-015
lhumerus -47.8115 11.5469 73.2263
lradius 14.4798
lwrist -16.9923
lhand -15.3443 -29.2509
lfingers 7.12502
lthumb 10.8327 0.449713
rfemur -6.80826 -3.71213 16.1444
rtibia 66.163
rfoot 2.8945 -13.8489
rtoes -8.64183
lfemur -36.3128 5.98101 -26.6493
ltibia 39.4245
lfoot -10.6486 1.95385
ltoes -4.06732
38
root 8.95343 15.9698 -24.4633 7.5907 -5.38435 2.44302
lowerback -2.88807 2.33313 -5.59455
upperback 0.0591312 3.28523 0.966276
thorax 1.30903 1.60254 4.25265
lowerneck -20.9708 -4.83668 -12.2323
upperneck 17.1806 -5.83284 13.3274
head 9.6737 -2.07639 5.89276
rclavicle 3.38928e-014 2.18663e-014
rhumerus -23.7443 20.9621 -85.9676
rradius 38.251
rwrist -19.2459
rhand -36.2614 -26.8204
rfingers 7.12502
rthumb -9.36204 -56.5925
lclavicle 3.38928e-014 2.18663e-014
lhumerus -45.8277 10.4328 74.8959
lradius 14.9088
lwrist -14.6537
lhand -15.7485 -29.2103
lfingers 7.12502
lthumb 10.4428 0.510365
rfemur -8.67891 -3.55098 16.7039
rtibia 67.5631
rfoot 1.14202 -13.88
rtoes -8.98874
lfemur -35.0775 5.67308 -26.4028
ltibia 38.9485
lfoot -11.37 2.05957
ltoes -4.42351
39
root 8.96575 16.0275 -24.2459 7.59985 -5.30098 2.28739
lowerback -3.07804 2.13061 -5.49041
upperback 0.3083 3.02604 1.11489
thorax 1.69992 1.45532 4.35749
lowerneck -22.0178 -4.79855 -11.8386
upperneck 17.7856 -5.74507 12.8908
head 10.0348 -2.01907 5.69936
rclavicle 1.88845e-014 2.38542e-015
rhumerus -23.9858 21.2009 -86.2103
rradius 37.8666
rwrist -19.0263
rhand -35.9051 -25.8566
rfingers 7.12502
rthumb -9.01827 -55.6438
lclavicle 1.88845e-014 2.38542e-015
lhumerus -44.1716 10.1961 76.0819
lradius 15.1727
lwrist -13.2478
lhand -16.0315 -28.5548
lfingers 7.12502
lthumb 10.1698 1.1794
rfemur -10.5375 -3.48746 17.2661
rtibia 68.623
rfoot -0.242517 -13.628
rtoes -11.4737
lfemur -33.8106 5.26334 -26.1634
ltibia 38.3285
lfoot -11.8872 2.38563
ltoes -4.8846
40
root 8.97549 16.0892 -24.0279 7.64185 -5.19714 2.05433
lowerback -3.17946 1.92136 -5.31341
upperback 0.348503 2.74167 1.38959
thorax 1.82578 1.30914 4.53926
lowerneck -22.1145 -4.74155 -12.1373
upperneck 17.9426 -5.56055 12.8562
head 10.0887 -1.95585 5.77285
rclavicle -1.96797e-014 1.74931e-014
rhumerus -24.7003 21.6652 -86.4041
rradius 37.6068
rwrist -18.9221
rhand -35.7619 -25.9897
rfingers 7.12502
rthumb -8.88007 -55.7828
lclavicle -1.96797e-014 1.74931e-014
lhumerus -42.9844 10.4755 76.9478
lradius 15.3271
lwrist -12.7943
lhand -16.2164 -28.2826
lfingers 7.12502
lthumb 9.99138 1.46025
rfemur -12.4546 -3.41417 17.8975
rtibia 69.4586
rfoot -1.75246 -13.231
rtoes -11.7281
lfemur -32.5496 4.92536 -25.8722
ltibia 37.635
lfoot -12.2538 2.78805
ltoes -5.97466
